<mxfile host="app.diagrams.net" modified="2023-08-12T14:34:40.132Z" agent="Mozilla/5.0 (Windows NT 10.0; Win64; x64) AppleWebKit/537.36 (KHTML, like Gecko) Chrome/115.0.0.0 Safari/537.36 Edg/115.0.1901.203" version="21.6.7" etag="oJGHQ4Yqu8pLO9vhgVax" type="github">
  <diagram name="Page-1" id="wx9lBFD7JG-YGUOO6VNd">
    <mxGraphModel>
      <root>
        <mxCell id="0" />
        <mxCell id="1" parent="0" />
      </root>
    </mxGraphModel>
  </diagram>
</mxfile>
